<?xml version="1.0" encoding="utf-8"?>
<!-- Generator: Adobe Illustrator 23.0.0, SVG Export Plug-In . SVG Version: 6.00 Build 0)  -->
<svg version="1.1" id="레이어_1" xmlns="http://www.w3.org/2000/svg" xmlns:xlink="http://www.w3.org/1999/xlink" x="0px"
	 y="0px" viewBox="0 0 348.2 90.9" style="enable-background:new 0 0 348.2 90.9;" xml:space="preserve">
<style type="text/css">
	.st0{fill:#FFFFFF;}
	.st1{fill:none;stroke:#FFFFFF;stroke-width:1.1977;stroke-miterlimit:10;}
</style>
<path class="st0" d="M2,85.6V22.6h5v16.5h0.4C13,26.9,21.9,20.8,34.1,20.8c5.6,0,10.2,1.6,13.9,4.9c3.6,3.3,6.1,7.7,7.4,13.4
	c5.6-12.2,14.8-18.3,27.6-18.3c6.9,0,12.3,2.4,16.2,7.3s5.8,11.3,5.8,19.3v38.3h-5.2V51.2c0-6.5-1.4-11.2-4.3-14
	c-2.8-2.8-8.2-4.3-16-4.3c-5,0-9.2,0.7-12.5,2c-3.3,1.4-5.7,3.2-7.2,5.7c-1.4,2.4-2.4,4.7-2.9,6.8c-0.5,2.1-0.8,4.5-0.8,7.1v31.1
	h-5.2V51.2c0-6.5-1.4-11.2-4.3-14s-8.2-4.3-16-4.3c-5,0-9.2,0.7-12.5,2c-3.4,1.4-5.7,3.2-7.2,5.7C9.5,43,8.5,45.2,8,47.4
	c-0.5,2.1-0.8,4.5-0.8,7.1v31.1H2z"/>
<path class="st0" d="M117.7,85.6V22.6h5v16.5h0.4c5.6-12.2,14.5-18.3,26.7-18.3c5.6,0,10.2,1.6,13.9,4.9c3.6,3.3,6.1,7.7,7.4,13.4
	c5.6-12.2,14.8-18.3,27.6-18.3c6.9,0,12.4,2.4,16.2,7.3s5.8,11.3,5.8,19.3v38.3h-5.2V51.2c0-6.5-1.4-11.2-4.3-14s-8.2-4.3-16-4.3
	c-5,0-9.2,0.7-12.5,2c-3.4,1.4-5.7,3.2-7.2,5.7c-1.4,2.4-2.4,4.7-2.9,6.8c-0.5,2.1-0.8,4.5-0.8,7.1v31.1h-5.2V51.2
	c0-6.5-1.4-11.2-4.3-14s-8.2-4.3-16-4.3c-5,0-9.2,0.7-12.5,2c-3.4,1.4-5.7,3.2-7.2,5.7c-1.4,2.4-2.4,4.7-2.9,6.8
	c-0.5,2.1-0.8,4.5-0.8,7.1v31.1H117.7z"/>
<path class="st0" d="M264.2,87.3c-9.6,0-17.4-3.2-23.5-9.7c-6.1-6.5-9.1-14.4-9.1-23.7s3.1-17.2,9.1-23.6c6.1-6.4,13.9-9.7,23.5-9.7
	c9.1,0,16.3,2.4,21.5,7.3c5.2,4.8,7.8,10.5,7.8,16.9h-5.2c-1.3-8-9.7-12.1-25.3-12.1c-8.8,0-15.4,1.9-19.7,5.6
	c-4.3,3.7-6.5,8.9-6.5,15.6s2.2,11.9,6.6,15.7c4.4,3.8,10.9,5.7,19.6,5.7c15.8,0,24.3-4.5,25.7-13.6h5.2c0,6.9-2.6,12.9-7.8,18
	C280.8,84.7,273.5,87.3,264.2,87.3z"/>
<path class="st0" d="M338.5,86c-9.3,0-15.7-1.6-19.1-4.9c-3.4-3.3-5.1-8.8-5.1-16.5v-30h-11.1V22.6h11.6V6.4l4.7-4.6v20.7H346v12.1
	h-26.4v28.7c0.1,3.2,0.7,5.7,2,7.4c1.2,1.7,3.6,2.9,7.2,3.7s8.7,1.1,15.5,0.9v10.6C342.9,86,341,86,338.5,86z"/>
<g>
	<polygon class="st1" points="274.1,54 263.7,54.1 268.8,63.2 263.5,54.3 258.2,63.2 263.3,54.1 252.9,54 263.3,53.8 258.2,44.8 
		263.5,53.7 268.8,44.8 263.7,53.8 	"/>
</g>
</svg>
