<?xml version="1.0" encoding="utf-8"?>
<!-- Generator: Adobe Illustrator 23.0.0, SVG Export Plug-In . SVG Version: 6.00 Build 0)  -->
<svg version="1.1" id="레이어_1" xmlns="http://www.w3.org/2000/svg" xmlns:xlink="http://www.w3.org/1999/xlink" x="0px"
	 y="0px" viewBox="0 0 417.05 90.91" style="enable-background:new 0 0 417.05 90.91;" xml:space="preserve">
<style type="text/css">
	.st0{fill:#FFFFFF;}
	.st1{fill:none;stroke:#FFFFFF;stroke-width:1.1977;stroke-miterlimit:10;}
</style>
<g>
	<path class="st0" d="M4.03,85.63V22.57h4.96V39.1h0.38c5.59-12.21,14.49-18.31,26.7-18.31c5.59,0,10.21,1.63,13.86,4.9
		c3.64,3.26,6.1,7.74,7.37,13.41c5.59-12.21,14.79-18.31,27.59-18.31c6.95,0,12.35,2.42,16.21,7.25c3.86,4.83,5.78,11.27,5.78,19.32
		v38.27h-5.21V51.18c0-6.53-1.42-11.21-4.26-14.05c-2.84-2.84-8.16-4.26-15.96-4.26c-5,0-9.18,0.68-12.52,2.03
		c-3.35,1.36-5.74,3.24-7.18,5.66c-1.44,2.42-2.42,4.68-2.92,6.8c-0.51,2.12-0.76,4.49-0.76,7.12v31.15h-5.21V51.18
		c0-6.53-1.42-11.21-4.26-14.05c-2.84-2.84-8.16-4.26-15.96-4.26c-5,0-9.18,0.68-12.52,2.03c-3.35,1.36-5.74,3.24-7.18,5.66
		c-1.44,2.42-2.42,4.68-2.92,6.8c-0.51,2.12-0.76,4.49-0.76,7.12v31.15H4.03z"/>
	<path class="st0" d="M124.68,85.63V22.57h4.96V39.1h0.38c5.59-12.21,14.49-18.31,26.7-18.31c5.59,0,10.21,1.63,13.86,4.9
		c3.64,3.26,6.1,7.74,7.37,13.41c5.59-12.21,14.79-18.31,27.59-18.31c6.95,0,12.35,2.42,16.21,7.25c3.86,4.83,5.78,11.27,5.78,19.32
		v38.27h-5.21V51.18c0-6.53-1.42-11.21-4.26-14.05c-2.84-2.84-8.16-4.26-15.96-4.26c-5,0-9.18,0.68-12.52,2.03
		c-3.35,1.36-5.74,3.24-7.18,5.66c-1.44,2.42-2.42,4.68-2.92,6.8c-0.51,2.12-0.76,4.49-0.76,7.12v31.15h-5.21V51.18
		c0-6.53-1.42-11.21-4.26-14.05c-2.84-2.84-8.16-4.26-15.96-4.26c-5,0-9.18,0.68-12.52,2.03c-3.35,1.36-5.74,3.24-7.18,5.66
		c-1.44,2.42-2.42,4.68-2.92,6.8c-0.51,2.12-0.76,4.49-0.76,7.12v31.15H124.68z"/>
	<path class="st0" d="M273.17,87.28c-9.58,0-17.42-3.24-23.52-9.73c-6.1-6.48-9.15-14.39-9.15-23.71c0-9.32,3.05-17.21,9.15-23.65
		c6.1-6.44,13.94-9.66,23.52-9.66c9.15,0,16.31,2.42,21.49,7.25c5.17,4.83,7.75,10.47,7.75,16.91h-5.21
		c-1.27-8.05-9.71-12.08-25.3-12.08c-8.82,0-15.38,1.87-19.71,5.59c-4.32,3.73-6.48,8.94-6.48,15.64c0,6.7,2.18,11.93,6.55,15.7
		c4.36,3.77,10.91,5.66,19.64,5.66c15.76,0,24.32-4.53,25.68-13.6h5.21c0,6.87-2.61,12.86-7.82,17.99
		C289.76,84.72,282.49,87.28,273.17,87.28z"/>
	<path class="st0" d="M345.51,86.01c-9.32,0-15.68-1.63-19.07-4.9c-3.39-3.26-5.08-8.75-5.08-16.46v-30h-11.06V22.57h11.57V6.43
		l4.7-4.58v20.72h26.44v12.08h-26.44v28.73c0.08,3.22,0.74,5.68,1.97,7.37c1.23,1.7,3.62,2.92,7.18,3.69s8.73,1.06,15.51,0.89v10.55
		C349.87,85.97,347.97,86.01,345.51,86.01z"/>
	<path class="st0" d="M411.05,84.68c-1.82,1.48-4.13,2.22-6.93,2.22s-5.11-0.74-6.93-2.22c-1.82-1.48-2.73-3.5-2.73-6.04
		s0.91-4.55,2.73-6.04c1.82-1.48,4.13-2.22,6.93-2.22s5.11,0.74,6.93,2.22c1.82,1.48,2.73,3.5,2.73,6.04S412.87,83.2,411.05,84.68z"
		/>
</g>
<g>
	<polygon class="st1" points="283.1,53.98 272.73,54.11 277.8,63.17 272.49,54.25 267.18,63.17 272.25,54.11 261.87,53.98 
		272.25,53.85 267.18,44.78 272.49,53.71 277.8,44.79 272.73,53.85 	"/>
</g>
<g>
</g>
<g>
</g>
<g>
</g>
<g>
</g>
<g>
</g>
<g>
</g>
</svg>
